<svg xmlns="http://www.w3.org/2000/svg" xmlns:xlink="http://www.w3.org/1999/xlink" width="232.269" height="76.05" viewBox="0 0 232.269 76.05"><defs><clipPath id="a"><rect width="232.269" height="76.05" fill="#874a9d"/></clipPath><clipPath id="c"><rect width="143.657" height="9.194" fill="#874a9d" opacity="0.2"/></clipPath></defs><g transform="translate(12 207)"><g transform="translate(-12 -207)" clip-path="url(#a)"><g clip-path="url(#a)"><g transform="translate(88.091 66.856)" opacity="0.8"><g clip-path="url(#c)"><path d="M256.115,193.794a5.608,5.608,0,0,1-.047.709,5.218,5.218,0,0,1-.149.737,4.883,4.883,0,0,1-.264.725,3.96,3.96,0,0,1-.395.677,3.692,3.692,0,0,1-.539.594,3.267,3.267,0,0,1-.7.471,3.816,3.816,0,0,1-.874.309,5.264,5.264,0,0,1-1.156.109h-1.5a.436.436,0,0,1-.128-.018.235.235,0,0,1-.1-.06.219.219,0,0,1-.058-.112.39.39,0,0,1,.011-.175l1.2-6.035a.408.408,0,0,1,.16-.285.5.5,0,0,1,.28-.081h1.428a4.287,4.287,0,0,1,1.292.165,2.278,2.278,0,0,1,.855.479,1.953,1.953,0,0,1,.513.766,2.907,2.907,0,0,1,.17,1.028m-.952.078a2.264,2.264,0,0,0-.107-.711,1.41,1.41,0,0,0-.337-.557,1.592,1.592,0,0,0-.589-.366,2.776,2.776,0,0,0-.949-.133h-.941l-1.051,5.266h.931a3.173,3.173,0,0,0,1.067-.154,2.6,2.6,0,0,0,1.318-1.033,3.752,3.752,0,0,0,.377-.737,4.206,4.206,0,0,0,.214-.792,4.717,4.717,0,0,0,.068-.782" transform="translate(-250.199 -190.839)" fill="#874a9d"/><path d="M273.16,197.367a1.265,1.265,0,0,1-.167.649,1.375,1.375,0,0,1-.523.492,3.02,3.02,0,0,1-.91.314,6.97,6.97,0,0,1-1.328.11h-.554a2.662,2.662,0,0,0-.05.335c-.009.108-.013.209-.013.3a1.129,1.129,0,0,0,.259.8,1.1,1.1,0,0,0,.84.277,3.308,3.308,0,0,0,.6-.049q.267-.05.463-.107c.131-.038.238-.074.322-.107a.6.6,0,0,1,.172-.05.081.081,0,0,1,.071.034.171.171,0,0,1,.024.1.9.9,0,0,1-.011.125,1.247,1.247,0,0,1-.031.149.8.8,0,0,1-.055.144.533.533,0,0,1-.076.115.645.645,0,0,1-.222.123,2.885,2.885,0,0,1-.379.11,4.759,4.759,0,0,1-.481.081,4.422,4.422,0,0,1-.523.031,2.86,2.86,0,0,1-.816-.1,1.44,1.44,0,0,1-.583-.321,1.333,1.333,0,0,1-.348-.541,2.282,2.282,0,0,1-.115-.764,4.414,4.414,0,0,1,.066-.73,4.242,4.242,0,0,1,.206-.771,3.8,3.8,0,0,1,.366-.732,2.8,2.8,0,0,1,.536-.617,2.53,2.53,0,0,1,.719-.429,2.475,2.475,0,0,1,.92-.162,2.227,2.227,0,0,1,.745.11,1.532,1.532,0,0,1,.5.283,1.058,1.058,0,0,1,.285.384,1.087,1.087,0,0,1,.089.421m-.884.078a.523.523,0,0,0-.209-.432.947.947,0,0,0-.6-.165,1.45,1.45,0,0,0-.6.118,1.563,1.563,0,0,0-.463.316,1.962,1.962,0,0,0-.345.463,2.955,2.955,0,0,0-.233.557h.533a5.207,5.207,0,0,0,.918-.068,2.108,2.108,0,0,0,.591-.186.761.761,0,0,0,.314-.275.645.645,0,0,0,.091-.33" transform="translate(-262.202 -193.957)" fill="#874a9d"/><path d="M283.928,197.041a.166.166,0,0,1-.037.071.211.211,0,0,1-.079.049.562.562,0,0,1-.139.032,1.867,1.867,0,0,1-.212.011,1.788,1.788,0,0,1-.212-.011.43.43,0,0,1-.125-.032.112.112,0,0,1-.058-.049.106.106,0,0,1,0-.071l1.391-6.987a.2.2,0,0,1,.034-.073.171.171,0,0,1,.078-.052.63.63,0,0,1,.142-.031,1.842,1.842,0,0,1,.217-.01,1.662,1.662,0,0,1,.207.01.443.443,0,0,1,.125.031.1.1,0,0,1,.055.052.164.164,0,0,1,.005.073Z" transform="translate(-271.49 -189.887)" fill="#874a9d"/><path d="M290.909,197.676a.158.158,0,0,1-.037.07.208.208,0,0,1-.079.05.546.546,0,0,1-.138.031,1.787,1.787,0,0,1-.212.011,1.7,1.7,0,0,1-.212-.011.421.421,0,0,1-.125-.031.108.108,0,0,1-.057-.05.1.1,0,0,1,0-.07l.936-4.707a.131.131,0,0,1,.031-.068.193.193,0,0,1,.079-.052.577.577,0,0,1,.138-.031,1.913,1.913,0,0,1,.217-.011,1.706,1.706,0,0,1,.206.011.443.443,0,0,1,.126.031.106.106,0,0,1,.057.052.125.125,0,0,1,.008.068Zm1.354-6.292a1.055,1.055,0,0,1-.07.246.431.431,0,0,1-.118.159.445.445,0,0,1-.183.086,1.161,1.161,0,0,1-.267.026,1,1,0,0,1-.251-.026.263.263,0,0,1-.147-.086.275.275,0,0,1-.052-.159,1.1,1.1,0,0,1,.021-.246,1.079,1.079,0,0,1,.078-.243.539.539,0,0,1,.118-.162.376.376,0,0,1,.18-.089,1.313,1.313,0,0,1,.267-.024,1.1,1.1,0,0,1,.249.024.253.253,0,0,1,.147.089.287.287,0,0,1,.055.162.942.942,0,0,1-.026.243" transform="translate(-276.014 -190.521)" fill="#874a9d"/><path d="M302.133,196.5a.385.385,0,0,1-.016.107c-.01.037-.023.074-.037.113q-.193.57-.437,1.153t-.539,1.162q-.3.577-.648,1.134a11.559,11.559,0,0,1-.771,1.075.288.288,0,0,1-.084.089.374.374,0,0,1-.112.05.719.719,0,0,1-.149.024c-.056,0-.122.005-.2.005a2.592,2.592,0,0,1-.261-.011.642.642,0,0,1-.154-.031.155.155,0,0,1-.078-.058.2.2,0,0,1-.029-.089l-.7-4.461c0-.038-.006-.072-.008-.1s0-.057,0-.081a.211.211,0,0,1,.021-.1.138.138,0,0,1,.068-.058.419.419,0,0,1,.128-.029c.054-.006.126-.008.217-.008s.164,0,.22.008a.45.45,0,0,1,.128.026.108.108,0,0,1,.06.052.273.273,0,0,1,.021.081l.565,3.88v.063l.026-.031q.308-.466.565-.9t.476-.9q.22-.465.416-.978t.4-1.129a.247.247,0,0,1,.044-.081.185.185,0,0,1,.084-.052.634.634,0,0,1,.147-.026c.061-.006.137-.008.227-.008a2,2,0,0,1,.2.008.646.646,0,0,1,.123.021.12.12,0,0,1,.063.037.088.088,0,0,1,.018.055" transform="translate(-281.113 -194.093)" fill="#874a9d"/><path d="M315.211,197.367a1.266,1.266,0,0,1-.167.649,1.375,1.375,0,0,1-.523.492,3.017,3.017,0,0,1-.91.314,6.968,6.968,0,0,1-1.329.11h-.554a2.519,2.519,0,0,0-.05.335q-.013.162-.013.3a1.129,1.129,0,0,0,.259.8,1.1,1.1,0,0,0,.839.277,3.308,3.308,0,0,0,.6-.049q.267-.05.463-.107t.322-.107a.6.6,0,0,1,.173-.05.081.081,0,0,1,.071.034.171.171,0,0,1,.024.1.9.9,0,0,1-.011.125,1.248,1.248,0,0,1-.031.149.8.8,0,0,1-.055.144.521.521,0,0,1-.076.115.641.641,0,0,1-.222.123,2.886,2.886,0,0,1-.379.11,4.748,4.748,0,0,1-.481.081,4.43,4.43,0,0,1-.523.031,2.862,2.862,0,0,1-.816-.1,1.441,1.441,0,0,1-.583-.321,1.338,1.338,0,0,1-.348-.541,2.286,2.286,0,0,1-.115-.764,4.42,4.42,0,0,1,.065-.73,4.221,4.221,0,0,1,.207-.771,3.791,3.791,0,0,1,.366-.732,2.8,2.8,0,0,1,.536-.617,2.531,2.531,0,0,1,.719-.429,2.476,2.476,0,0,1,.921-.162,2.226,2.226,0,0,1,.745.11,1.54,1.54,0,0,1,.5.283,1.06,1.06,0,0,1,.285.384,1.085,1.085,0,0,1,.089.421m-.884.078a.523.523,0,0,0-.209-.432.947.947,0,0,0-.6-.165,1.452,1.452,0,0,0-.6.118,1.567,1.567,0,0,0-.463.316,1.975,1.975,0,0,0-.345.463,2.952,2.952,0,0,0-.233.557h.533a5.216,5.216,0,0,0,.918-.068,2.1,2.1,0,0,0,.591-.186.76.76,0,0,0,.314-.275.645.645,0,0,0,.091-.33" transform="translate(-289.448 -193.957)" fill="#874a9d"/><path d="M328.72,196.41a.762.762,0,0,1-.008.081c-.005.04-.012.086-.018.139a1.452,1.452,0,0,1-.032.162.913.913,0,0,1-.052.154.667.667,0,0,1-.065.118.1.1,0,0,1-.076.047.264.264,0,0,1-.092-.018q-.05-.018-.11-.044a.786.786,0,0,0-.322-.063.775.775,0,0,0-.411.154,2.144,2.144,0,0,0-.457.426,3.378,3.378,0,0,0-.411.644,3.242,3.242,0,0,0-.275.805l-.413,2.1a.159.159,0,0,1-.037.07.2.2,0,0,1-.078.05.568.568,0,0,1-.139.032,1.871,1.871,0,0,1-.212.01,1.783,1.783,0,0,1-.212-.01.431.431,0,0,1-.126-.032.109.109,0,0,1-.057-.05.1.1,0,0,1,0-.07l.936-4.712a.134.134,0,0,1,.032-.068.2.2,0,0,1,.078-.052.48.48,0,0,1,.128-.028,1.768,1.768,0,0,1,.181-.008,1.661,1.661,0,0,1,.18.008.309.309,0,0,1,.11.028.1.1,0,0,1,.05.052.15.15,0,0,1,0,.068l-.173.858a2.786,2.786,0,0,1,.285-.413,2.235,2.235,0,0,1,.358-.348,1.809,1.809,0,0,1,.405-.238,1.072,1.072,0,0,1,.416-.089,1.259,1.259,0,0,1,.18.013q.092.013.17.031a1.01,1.01,0,0,1,.139.042.267.267,0,0,1,.091.055.136.136,0,0,1,.031.1" transform="translate(-298.737 -193.957)" fill="#874a9d"/><path d="M336.407,197.676a.158.158,0,0,1-.037.07.206.206,0,0,1-.078.05.545.545,0,0,1-.138.031,1.788,1.788,0,0,1-.212.011,1.707,1.707,0,0,1-.212-.011.421.421,0,0,1-.125-.031.108.108,0,0,1-.057-.05.1.1,0,0,1,0-.07l.936-4.707a.131.131,0,0,1,.031-.068.193.193,0,0,1,.079-.052.576.576,0,0,1,.138-.031,1.916,1.916,0,0,1,.217-.011,1.7,1.7,0,0,1,.206.011.443.443,0,0,1,.126.031.107.107,0,0,1,.057.052.125.125,0,0,1,.008.068Zm1.355-6.292a1.053,1.053,0,0,1-.07.246.43.43,0,0,1-.118.159.443.443,0,0,1-.183.086,1.162,1.162,0,0,1-.267.026,1,1,0,0,1-.251-.026.263.263,0,0,1-.147-.086.274.274,0,0,1-.052-.159,1.1,1.1,0,0,1,.021-.246,1.082,1.082,0,0,1,.079-.243.539.539,0,0,1,.118-.162.376.376,0,0,1,.18-.089,1.313,1.313,0,0,1,.267-.024,1.092,1.092,0,0,1,.248.024.253.253,0,0,1,.147.089.286.286,0,0,1,.054.162.937.937,0,0,1-.026.243" transform="translate(-305.492 -190.521)" fill="#874a9d"/><path d="M347.123,197.445a3.146,3.146,0,0,1-.021.361q-.021.177-.058.366l-.591,2.94a.175.175,0,0,1-.034.07.18.18,0,0,1-.079.05.586.586,0,0,1-.138.031,1.771,1.771,0,0,1-.215.011,1.643,1.643,0,0,1-.206-.011.422.422,0,0,1-.126-.031.108.108,0,0,1-.057-.05.128.128,0,0,1-.008-.07l.58-2.908a2.362,2.362,0,0,0,.05-.314c.008-.1.013-.19.013-.267a.885.885,0,0,0-.136-.515.513.513,0,0,0-.455-.2,1.173,1.173,0,0,0-.567.159,2.026,2.026,0,0,0-.539.439,3.125,3.125,0,0,0-.445.664,3.183,3.183,0,0,0-.285.834l-.418,2.1a.159.159,0,0,1-.037.07.206.206,0,0,1-.079.05.546.546,0,0,1-.138.031,1.783,1.783,0,0,1-.212.011,1.694,1.694,0,0,1-.212-.011.422.422,0,0,1-.126-.031.108.108,0,0,1-.057-.05.1.1,0,0,1,0-.07l.947-4.712a.143.143,0,0,1,.029-.068.17.17,0,0,1,.073-.052.443.443,0,0,1,.126-.028,1.756,1.756,0,0,1,.18-.008,1.675,1.675,0,0,1,.181.008.311.311,0,0,1,.11.028.1.1,0,0,1,.05.052.142.142,0,0,1,.005.068l-.178.9a1.485,1.485,0,0,1,.256-.377,2.307,2.307,0,0,1,.424-.366,2.5,2.5,0,0,1,.541-.277,1.759,1.759,0,0,1,.615-.11,1.412,1.412,0,0,1,.586.107,1.026,1.026,0,0,1,.591.688,1.817,1.817,0,0,1,.063.481" transform="translate(-310.016 -193.957)" fill="#874a9d"/><path d="M362.014,201.484a2.33,2.33,0,0,1-.269.732,1.7,1.7,0,0,1-.474.521,2.066,2.066,0,0,1-.682.311,3.513,3.513,0,0,1-.9.1,3.37,3.37,0,0,1-.792-.086,2.266,2.266,0,0,1-.573-.207.336.336,0,0,1-.107-.1.252.252,0,0,1-.029-.128c0-.021,0-.051,0-.089a.639.639,0,0,1,.015-.115c.009-.038.019-.079.031-.12a.5.5,0,0,1,.047-.112.232.232,0,0,1,.07-.078.153.153,0,0,1,.089-.029.331.331,0,0,1,.157.055,2.406,2.406,0,0,0,.641.249,2.431,2.431,0,0,0,.573.057,2.085,2.085,0,0,0,.51-.057,1.258,1.258,0,0,0,.4-.173.933.933,0,0,0,.277-.293,1.365,1.365,0,0,0,.159-.424q.089-.476.178-.79t.146-.487a1.4,1.4,0,0,1-.267.39,2.541,2.541,0,0,1-.424.361,2.279,2.279,0,0,1-.528.267,1.742,1.742,0,0,1-.586.1,1.521,1.521,0,0,1-.664-.131,1.128,1.128,0,0,1-.437-.358,1.487,1.487,0,0,1-.238-.539,2.925,2.925,0,0,1-.073-.672,4.591,4.591,0,0,1,.057-.683,4.749,4.749,0,0,1,.183-.763,4.53,4.53,0,0,1,.322-.748,2.894,2.894,0,0,1,.473-.649,2.2,2.2,0,0,1,.641-.458,1.9,1.9,0,0,1,.823-.173,1.591,1.591,0,0,1,.8.188,2.053,2.053,0,0,1,.593.518l.1-.476a.173.173,0,0,1,.12-.12.961.961,0,0,1,.309-.037,1.628,1.628,0,0,1,.175.008.347.347,0,0,1,.113.029.1.1,0,0,1,.052.052.144.144,0,0,1,.005.068Zm-.084-3.849a1.874,1.874,0,0,0-.531-.541,1.172,1.172,0,0,0-.641-.181.992.992,0,0,0-.507.131,1.454,1.454,0,0,0-.4.348,2.372,2.372,0,0,0-.306.5,3.682,3.682,0,0,0-.212.578,4.456,4.456,0,0,0-.12.586,3.977,3.977,0,0,0-.039.526,2.04,2.04,0,0,0,.039.413.937.937,0,0,0,.126.321.641.641,0,0,0,.225.212.677.677,0,0,0,.338.078,1.192,1.192,0,0,0,.578-.159,2.047,2.047,0,0,0,.541-.442,3.085,3.085,0,0,0,.445-.667,3.4,3.4,0,0,0,.288-.839Z" transform="translate(-320.169 -193.958)" fill="#874a9d"/><path d="M384.774,197.748a.809.809,0,0,1,.008.186.146.146,0,0,1-.057.107.318.318,0,0,1-.154.047c-.07.007-.164.011-.283.011-.076,0-.143,0-.2-.008a.465.465,0,0,1-.128-.026.142.142,0,0,1-.065-.05.177.177,0,0,1-.026-.079l-.251-1.647H380.8l-.884,1.632a.332.332,0,0,1-.061.086.241.241,0,0,1-.094.055.641.641,0,0,1-.157.029q-.1.008-.238.008a1.885,1.885,0,0,1-.251-.013.23.23,0,0,1-.131-.05.109.109,0,0,1-.021-.107.85.85,0,0,1,.073-.186l3.525-6.286a.428.428,0,0,1,.079-.094.3.3,0,0,1,.11-.057.8.8,0,0,1,.173-.029c.069-.005.155-.008.256-.008s.208,0,.28.008a.762.762,0,0,1,.172.029.165.165,0,0,1,.092.06.254.254,0,0,1,.037.1Zm-1.763-5.549h-.005l-1.83,3.373h2.343Z" transform="translate(-333.624 -190.782)" fill="#874a9d"/><path d="M402.53,196.827a1.091,1.091,0,0,1-.018.194.9.9,0,0,1-.055.186.546.546,0,0,1-.086.144.146.146,0,0,1-.112.057.227.227,0,0,1-.152-.076,2,2,0,0,0-.206-.17,1.458,1.458,0,0,0-.324-.173,1.354,1.354,0,0,0-.5-.079,1.235,1.235,0,0,0-.593.139,1.548,1.548,0,0,0-.45.361,2.047,2.047,0,0,0-.317.5,3.957,3.957,0,0,0-.2.57,4,4,0,0,0-.112.557,3.759,3.759,0,0,0-.034.468,1.231,1.231,0,0,0,.236.816.867.867,0,0,0,.7.277,1.8,1.8,0,0,0,.583-.083,2,2,0,0,0,.413-.191q.17-.107.28-.191a.338.338,0,0,1,.194-.084.073.073,0,0,1,.065.039.22.22,0,0,1,.024.113,1.243,1.243,0,0,1-.01.149,1.366,1.366,0,0,1-.034.178,1.118,1.118,0,0,1-.057.17.49.49,0,0,1-.1.144,1.119,1.119,0,0,1-.22.16,2.136,2.136,0,0,1-.363.17,3.121,3.121,0,0,1-.447.126,2.454,2.454,0,0,1-.5.05,1.679,1.679,0,0,1-1.258-.429,1.766,1.766,0,0,1-.416-1.276,4.9,4.9,0,0,1,.055-.7,4.259,4.259,0,0,1,.186-.763,4.368,4.368,0,0,1,.335-.745,2.689,2.689,0,0,1,.5-.64,2.337,2.337,0,0,1,.69-.447,2.266,2.266,0,0,1,.9-.168,2.309,2.309,0,0,1,.4.034,2.49,2.49,0,0,1,.363.091,1.5,1.5,0,0,1,.308.144,1.625,1.625,0,0,1,.215.154.352.352,0,0,1,.094.115.292.292,0,0,1,.018.1" transform="translate(-346.26 -193.967)" fill="#874a9d"/><path d="M415.782,197.676a.163.163,0,0,1-.037.07.207.207,0,0,1-.079.05.545.545,0,0,1-.139.031,1.781,1.781,0,0,1-.212.011,1.722,1.722,0,0,1-.209-.011.426.426,0,0,1-.128-.031.122.122,0,0,1-.06-.05.094.094,0,0,1-.005-.07l.826-4.126h-2.432l-.529,2.625q-.021.11-.037.246a2,2,0,0,0-.016.225.564.564,0,0,0,.112.389.472.472,0,0,0,.363.123,1.126,1.126,0,0,0,.246-.024,1.653,1.653,0,0,0,.18-.05q.076-.026.133-.05a.273.273,0,0,1,.1-.024.081.081,0,0,1,.065.029.175.175,0,0,1,.024.107.973.973,0,0,1-.013.149c-.009.054-.02.107-.034.159a.768.768,0,0,1-.052.141.386.386,0,0,1-.068.1.487.487,0,0,1-.125.073,1.357,1.357,0,0,1-.194.065,1.869,1.869,0,0,1-.233.044,1.9,1.9,0,0,1-.243.016,1.811,1.811,0,0,1-.507-.063.9.9,0,0,1-.361-.2.8.8,0,0,1-.217-.335,1.464,1.464,0,0,1-.07-.483c0-.042,0-.088,0-.139s.01-.1.018-.16l.026-.167c.008-.056.018-.108.029-.157l.528-2.646h-.654a.115.115,0,0,1-.089-.034.2.2,0,0,1-.031-.133,1.067,1.067,0,0,1,.016-.17.944.944,0,0,1,.047-.181.461.461,0,0,1,.081-.141.15.15,0,0,1,.118-.057h.659l.225-1.119a.125.125,0,0,1,.034-.068.242.242,0,0,1,.081-.055.482.482,0,0,1,.139-.034,1.878,1.878,0,0,1,.212-.01,1.817,1.817,0,0,1,.21.01.378.378,0,0,1,.128.034.119.119,0,0,1,.058.055.1.1,0,0,1,0,.068l-.225,1.119h3.028q.157,0,.2.07a.272.272,0,0,1,.013.207Zm1.349-6.292a1.074,1.074,0,0,1-.071.246.424.424,0,0,1-.118.159.441.441,0,0,1-.18.086,1.124,1.124,0,0,1-.264.026,1,1,0,0,1-.254-.026.247.247,0,0,1-.141-.086.288.288,0,0,1-.05-.159,1.11,1.11,0,0,1,.021-.246,1.036,1.036,0,0,1,.071-.243.472.472,0,0,1,.12-.162.412.412,0,0,1,.181-.089,1.234,1.234,0,0,1,.262-.024,1.121,1.121,0,0,1,.253.024.24.24,0,0,1,.144.089.3.3,0,0,1,.052.162.957.957,0,0,1-.026.243" transform="translate(-354.816 -190.521)" fill="#874a9d"/><path d="M432.8,197.963a4.4,4.4,0,0,1-.073.79,4.031,4.031,0,0,1-.222.776,3.456,3.456,0,0,1-.379.7,2.706,2.706,0,0,1-.541.575,2.521,2.521,0,0,1-.706.39,2.563,2.563,0,0,1-.881.144,2.713,2.713,0,0,1-.86-.12,1.483,1.483,0,0,1-.588-.351,1.4,1.4,0,0,1-.34-.565,2.423,2.423,0,0,1-.11-.758,4.528,4.528,0,0,1,.071-.79,3.751,3.751,0,0,1,.222-.774,3.789,3.789,0,0,1,.379-.7,2.619,2.619,0,0,1,.539-.578,2.514,2.514,0,0,1,.706-.39,2.564,2.564,0,0,1,.881-.144,2.66,2.66,0,0,1,.86.123,1.531,1.531,0,0,1,.591.353,1.389,1.389,0,0,1,.342.565,2.4,2.4,0,0,1,.11.753m-.909.052a1.838,1.838,0,0,0-.055-.471.8.8,0,0,0-.518-.575,1.556,1.556,0,0,0-1.07.034,1.588,1.588,0,0,0-.457.3,2.028,2.028,0,0,0-.351.447,2.95,2.95,0,0,0-.246.547,3.627,3.627,0,0,0-.144.6,3.951,3.951,0,0,0-.047.6,1.761,1.761,0,0,0,.058.471.892.892,0,0,0,.186.356.827.827,0,0,0,.332.225,1.562,1.562,0,0,0,1.07-.034,1.572,1.572,0,0,0,.455-.306,2.058,2.058,0,0,0,.351-.45,2.956,2.956,0,0,0,.246-.549,3.719,3.719,0,0,0,.144-.6,3.887,3.887,0,0,0,.048-.6" transform="translate(-365.46 -193.957)" fill="#874a9d"/><path d="M448.1,197.445a3.133,3.133,0,0,1-.021.361q-.021.177-.058.366l-.591,2.94a.177.177,0,0,1-.034.07.181.181,0,0,1-.079.05.585.585,0,0,1-.138.031,1.774,1.774,0,0,1-.215.011,1.643,1.643,0,0,1-.206-.011.423.423,0,0,1-.126-.031.108.108,0,0,1-.057-.05.129.129,0,0,1-.008-.07l.58-2.908a2.357,2.357,0,0,0,.05-.314c.008-.1.013-.19.013-.267a.885.885,0,0,0-.136-.515.513.513,0,0,0-.455-.2,1.173,1.173,0,0,0-.567.159,2.026,2.026,0,0,0-.539.439,3.128,3.128,0,0,0-.445.664,3.194,3.194,0,0,0-.285.834l-.418,2.1a.158.158,0,0,1-.037.07.206.206,0,0,1-.079.05.547.547,0,0,1-.138.031,1.783,1.783,0,0,1-.212.011,1.7,1.7,0,0,1-.212-.011.423.423,0,0,1-.125-.031.108.108,0,0,1-.057-.05.1.1,0,0,1,0-.07l.947-4.712a.142.142,0,0,1,.029-.068.171.171,0,0,1,.073-.052.444.444,0,0,1,.126-.028,1.758,1.758,0,0,1,.18-.008,1.674,1.674,0,0,1,.181.008.311.311,0,0,1,.11.028.1.1,0,0,1,.05.052.139.139,0,0,1,0,.068l-.178.9a1.49,1.49,0,0,1,.256-.377,2.31,2.31,0,0,1,.424-.366,2.5,2.5,0,0,1,.541-.277,1.759,1.759,0,0,1,.615-.11,1.411,1.411,0,0,1,.586.107,1.026,1.026,0,0,1,.591.688,1.818,1.818,0,0,1,.063.481" transform="translate(-375.442 -193.957)" fill="#874a9d"/><path d="M463.216,201.112a.173.173,0,0,1-.115.126.96.96,0,0,1-.314.037,1.153,1.153,0,0,1-.173-.011.444.444,0,0,1-.11-.029.111.111,0,0,1-.057-.047.093.093,0,0,1,0-.076l.173-.889a1.32,1.32,0,0,1-.246.366,2.357,2.357,0,0,1-.421.366,2.435,2.435,0,0,1-.541.277,1.743,1.743,0,0,1-.607.11,1.464,1.464,0,0,1-.693-.146,1.189,1.189,0,0,1-.437-.387,1.468,1.468,0,0,1-.222-.544,3.186,3.186,0,0,1-.06-.622,4.587,4.587,0,0,1,.055-.664,4.829,4.829,0,0,1,.178-.758,4.427,4.427,0,0,1,.319-.753,2.978,2.978,0,0,1,.473-.656,2.189,2.189,0,0,1,.643-.466,1.908,1.908,0,0,1,.832-.175,1.591,1.591,0,0,1,.8.188,2.051,2.051,0,0,1,.593.518l.1-.476a.172.172,0,0,1,.12-.12.962.962,0,0,1,.309-.037,1.633,1.633,0,0,1,.175.008.346.346,0,0,1,.113.029.1.1,0,0,1,.052.052.146.146,0,0,1,.005.068Zm-.162-3.478a1.873,1.873,0,0,0-.531-.541,1.171,1.171,0,0,0-.641-.181.988.988,0,0,0-.51.133,1.452,1.452,0,0,0-.4.353,2.391,2.391,0,0,0-.3.5,3.708,3.708,0,0,0-.209.578,4.58,4.58,0,0,0-.12.586,3.879,3.879,0,0,0-.039.518,2.313,2.313,0,0,0,.029.363,1.024,1.024,0,0,0,.11.33.617.617,0,0,0,.589.332,1.192,1.192,0,0,0,.578-.159,2.045,2.045,0,0,0,.541-.442,3.108,3.108,0,0,0,.445-.664,3.341,3.341,0,0,0,.288-.842Z" transform="translate(-385.739 -193.958)" fill="#874a9d"/><path d="M479.552,193.8a4.755,4.755,0,0,1-.243,1.457,4.843,4.843,0,0,1-.322.748,2.681,2.681,0,0,1-.473.643,2.25,2.25,0,0,1-.643.45,1.914,1.914,0,0,1-.819.17,1.694,1.694,0,0,1-.805-.178,1.865,1.865,0,0,1-.6-.512l-.094.46a.15.15,0,0,1-.112.125.986.986,0,0,1-.311.037.669.669,0,0,1-.293-.042.1.1,0,0,1-.052-.12l1.391-6.987a.191.191,0,0,1,.034-.073.172.172,0,0,1,.078-.052.621.621,0,0,1,.141-.031,1.847,1.847,0,0,1,.217-.01,1.6,1.6,0,0,1,.2.01.477.477,0,0,1,.125.031.1.1,0,0,1,.058.052.176.176,0,0,1,.005.073l-.419,2.1q-.026.136-.063.282c-.025.1-.05.194-.076.29s-.053.187-.079.272-.05.16-.071.222a1.491,1.491,0,0,1,.264-.379,2.407,2.407,0,0,1,.424-.361,2.62,2.62,0,0,1,.531-.275,1.622,1.622,0,0,1,.581-.11,1.544,1.544,0,0,1,.539.084,1.194,1.194,0,0,1,.382.222,1.152,1.152,0,0,1,.254.317,1.727,1.727,0,0,1,.149.366,2.421,2.421,0,0,1,.073.374,3.054,3.054,0,0,1,.021.343m-.9.073a2.356,2.356,0,0,0-.026-.324,1.168,1.168,0,0,0-.1-.34.714.714,0,0,0-.22-.264.627.627,0,0,0-.385-.107,1.186,1.186,0,0,0-.575.162,2.058,2.058,0,0,0-.544.447,3.207,3.207,0,0,0-.447.67,3.166,3.166,0,0,0-.285.839l-.173.868a1.789,1.789,0,0,0,.528.533,1.2,1.2,0,0,0,.638.173.974.974,0,0,0,.491-.125,1.5,1.5,0,0,0,.4-.335,2.258,2.258,0,0,0,.309-.478,3.6,3.6,0,0,0,.217-.565,4.4,4.4,0,0,0,.131-.594,3.829,3.829,0,0,0,.045-.559" transform="translate(-395.71 -189.887)" fill="#874a9d"/><path d="M491.292,197.041a.165.165,0,0,1-.037.071.212.212,0,0,1-.078.049.563.563,0,0,1-.139.032,1.869,1.869,0,0,1-.212.011,1.783,1.783,0,0,1-.212-.011.43.43,0,0,1-.125-.032.112.112,0,0,1-.058-.049.106.106,0,0,1,0-.071l1.391-6.987a.2.2,0,0,1,.034-.073.171.171,0,0,1,.078-.052.629.629,0,0,1,.141-.031,1.842,1.842,0,0,1,.217-.01,1.662,1.662,0,0,1,.207.01.443.443,0,0,1,.125.031.1.1,0,0,1,.055.052.165.165,0,0,1,.005.073Z" transform="translate(-405.845 -189.887)" fill="#874a9d"/><path d="M502.033,197.367a1.266,1.266,0,0,1-.167.649,1.376,1.376,0,0,1-.523.492,3.015,3.015,0,0,1-.91.314,6.966,6.966,0,0,1-1.328.11h-.554a2.544,2.544,0,0,0-.05.335q-.013.162-.013.3a1.129,1.129,0,0,0,.259.8,1.1,1.1,0,0,0,.839.277,3.307,3.307,0,0,0,.6-.049q.267-.05.463-.107t.321-.107a.6.6,0,0,1,.173-.05.081.081,0,0,1,.071.034.171.171,0,0,1,.024.1.9.9,0,0,1-.011.125,1.241,1.241,0,0,1-.031.149.8.8,0,0,1-.055.144.518.518,0,0,1-.076.115.641.641,0,0,1-.222.123,2.883,2.883,0,0,1-.379.11,4.757,4.757,0,0,1-.481.081,4.433,4.433,0,0,1-.523.031,2.862,2.862,0,0,1-.816-.1,1.441,1.441,0,0,1-.583-.321,1.337,1.337,0,0,1-.348-.541,2.282,2.282,0,0,1-.115-.764,4.413,4.413,0,0,1,.066-.73,4.218,4.218,0,0,1,.207-.771,3.8,3.8,0,0,1,.366-.732,2.8,2.8,0,0,1,.536-.617,2.534,2.534,0,0,1,.719-.429,2.477,2.477,0,0,1,.921-.162,2.226,2.226,0,0,1,.745.11,1.54,1.54,0,0,1,.5.283,1.055,1.055,0,0,1,.285.384,1.085,1.085,0,0,1,.089.421m-.884.078a.523.523,0,0,0-.209-.432.947.947,0,0,0-.6-.165,1.451,1.451,0,0,0-.6.118,1.566,1.566,0,0,0-.463.316,1.971,1.971,0,0,0-.345.463,2.952,2.952,0,0,0-.233.557h.533a5.212,5.212,0,0,0,.918-.068,2.1,2.1,0,0,0,.591-.186.761.761,0,0,0,.314-.275.645.645,0,0,0,.091-.33" transform="translate(-410.493 -193.957)" fill="#874a9d"/><path d="M520,197.936a.125.125,0,0,1-.034.068.194.194,0,0,1-.086.05.908.908,0,0,1-.147.031,1.483,1.483,0,0,1-.215.013,1.452,1.452,0,0,1-.219-.013.632.632,0,0,1-.131-.031.111.111,0,0,1-.063-.05.091.091,0,0,1-.005-.068l1.3-6.506a.114.114,0,0,1,.039-.068.24.24,0,0,1,.092-.05.946.946,0,0,1,.144-.031,1.434,1.434,0,0,1,.212-.013,1.377,1.377,0,0,1,.209.013.718.718,0,0,1,.134.031.113.113,0,0,1,.065.05.092.092,0,0,1,.005.068Z" transform="translate(-424.421 -190.782)" fill="#874a9d"/><path d="M531.078,197.445a3.132,3.132,0,0,1-.021.361q-.021.177-.058.366l-.591,2.94a.174.174,0,0,1-.034.07.179.179,0,0,1-.078.05.593.593,0,0,1-.139.031,1.769,1.769,0,0,1-.215.011,1.641,1.641,0,0,1-.206-.011.424.424,0,0,1-.126-.031.108.108,0,0,1-.057-.05.128.128,0,0,1-.008-.07l.58-2.908a2.4,2.4,0,0,0,.05-.314c.009-.1.013-.19.013-.267a.885.885,0,0,0-.136-.515.513.513,0,0,0-.455-.2,1.171,1.171,0,0,0-.567.159,2.027,2.027,0,0,0-.539.439,3.126,3.126,0,0,0-.445.664,3.188,3.188,0,0,0-.285.834l-.418,2.1a.156.156,0,0,1-.037.07.2.2,0,0,1-.078.05.547.547,0,0,1-.138.031,1.775,1.775,0,0,1-.212.011,1.694,1.694,0,0,1-.212-.011.423.423,0,0,1-.126-.031.108.108,0,0,1-.057-.05.1.1,0,0,1,0-.07l.946-4.712a.146.146,0,0,1,.029-.068.172.172,0,0,1,.073-.052.443.443,0,0,1,.126-.028,1.76,1.76,0,0,1,.18-.008,1.672,1.672,0,0,1,.181.008.313.313,0,0,1,.11.028.1.1,0,0,1,.05.052.141.141,0,0,1,0,.068l-.178.9a1.484,1.484,0,0,1,.256-.377,2.309,2.309,0,0,1,.424-.366,2.507,2.507,0,0,1,.541-.277,1.759,1.759,0,0,1,.614-.11,1.411,1.411,0,0,1,.586.107,1.025,1.025,0,0,1,.591.688,1.817,1.817,0,0,1,.063.481" transform="translate(-429.203 -193.957)" fill="#874a9d"/><path d="M545.664,194.273c0,.031,0,.066-.005.1a.685.685,0,0,1-.021.113.76.76,0,0,1-.042.115.823.823,0,0,1-.055.1.253.253,0,0,1-.065.071.142.142,0,0,1-.084.026h-1.2l-.528,2.626c-.014.073-.026.155-.037.246a2.029,2.029,0,0,0-.015.225.565.565,0,0,0,.112.389.471.471,0,0,0,.363.123,1.149,1.149,0,0,0,.246-.024,1.742,1.742,0,0,0,.18-.05c.05-.017.1-.034.133-.05a.273.273,0,0,1,.1-.024.08.08,0,0,1,.065.029.176.176,0,0,1,.023.107.922.922,0,0,1-.013.149,1.6,1.6,0,0,1-.034.159.732.732,0,0,1-.052.141.385.385,0,0,1-.068.1.5.5,0,0,1-.126.073,1.3,1.3,0,0,1-.193.065,1.828,1.828,0,0,1-.233.044,1.9,1.9,0,0,1-.243.016,1.811,1.811,0,0,1-.507-.063.9.9,0,0,1-.361-.2.8.8,0,0,1-.217-.335,1.467,1.467,0,0,1-.071-.484c0-.042,0-.088.005-.139s.009-.1.018-.16.018-.112.026-.167.018-.108.029-.157l.528-2.646h-.654a.115.115,0,0,1-.089-.034.205.205,0,0,1-.031-.133,1.081,1.081,0,0,1,.016-.17.946.946,0,0,1,.047-.181.469.469,0,0,1,.081-.141.153.153,0,0,1,.118-.057h.659l.225-1.119a.126.126,0,0,1,.034-.068.249.249,0,0,1,.081-.055.5.5,0,0,1,.139-.034,1.788,1.788,0,0,1,.212-.011,1.659,1.659,0,0,1,.207.011.388.388,0,0,1,.125.034.121.121,0,0,1,.058.055.132.132,0,0,1,.008.068l-.225,1.119h1.2a.1.1,0,0,1,.1.057.315.315,0,0,1,.026.131" transform="translate(-439.615 -191.773)" fill="#874a9d"/><path d="M556.31,197.367a1.266,1.266,0,0,1-.167.649,1.377,1.377,0,0,1-.523.492,3.019,3.019,0,0,1-.91.314,6.966,6.966,0,0,1-1.328.11h-.554a2.51,2.51,0,0,0-.05.335q-.013.162-.013.3a1.129,1.129,0,0,0,.259.8,1.1,1.1,0,0,0,.839.277,3.312,3.312,0,0,0,.6-.049q.267-.05.463-.107t.321-.107a.594.594,0,0,1,.173-.05.081.081,0,0,1,.07.034.168.168,0,0,1,.024.1.88.88,0,0,1-.011.125,1.218,1.218,0,0,1-.031.149.812.812,0,0,1-.055.144.521.521,0,0,1-.076.115.641.641,0,0,1-.222.123,2.894,2.894,0,0,1-.379.11,4.76,4.76,0,0,1-.481.081,4.433,4.433,0,0,1-.523.031,2.864,2.864,0,0,1-.816-.1,1.44,1.44,0,0,1-.583-.321,1.339,1.339,0,0,1-.348-.541,2.288,2.288,0,0,1-.115-.764,4.426,4.426,0,0,1,.065-.73,4.214,4.214,0,0,1,.207-.771,3.763,3.763,0,0,1,.366-.732,2.8,2.8,0,0,1,.536-.617,2.532,2.532,0,0,1,.719-.429,2.476,2.476,0,0,1,.921-.162,2.225,2.225,0,0,1,.745.11,1.539,1.539,0,0,1,.5.283,1.055,1.055,0,0,1,.285.384,1.082,1.082,0,0,1,.089.421m-.884.078a.524.524,0,0,0-.209-.432.947.947,0,0,0-.6-.165,1.451,1.451,0,0,0-.6.118,1.566,1.566,0,0,0-.463.316,1.98,1.98,0,0,0-.345.463,2.968,2.968,0,0,0-.233.557h.533a5.212,5.212,0,0,0,.918-.068,2.106,2.106,0,0,0,.591-.186.761.761,0,0,0,.314-.275.646.646,0,0,0,.091-.33" transform="translate(-445.659 -193.957)" fill="#874a9d"/><path d="M567.079,197.041a.165.165,0,0,1-.037.071.214.214,0,0,1-.078.049.566.566,0,0,1-.139.032,1.864,1.864,0,0,1-.212.011,1.78,1.78,0,0,1-.212-.011.429.429,0,0,1-.125-.032.112.112,0,0,1-.058-.049.107.107,0,0,1,0-.071l1.391-6.987a.2.2,0,0,1,.034-.073.173.173,0,0,1,.078-.052.632.632,0,0,1,.142-.031,1.841,1.841,0,0,1,.217-.01,1.667,1.667,0,0,1,.207.01.443.443,0,0,1,.125.031.1.1,0,0,1,.055.052.163.163,0,0,1,.005.073Z" transform="translate(-454.948 -189.887)" fill="#874a9d"/><path d="M574.06,197.041a.164.164,0,0,1-.037.071.21.21,0,0,1-.079.049.562.562,0,0,1-.139.032,1.867,1.867,0,0,1-.212.011,1.784,1.784,0,0,1-.212-.011.429.429,0,0,1-.125-.032.112.112,0,0,1-.058-.049.106.106,0,0,1,0-.071l1.391-6.987a.2.2,0,0,1,.034-.073.17.17,0,0,1,.078-.052.629.629,0,0,1,.142-.031,1.837,1.837,0,0,1,.217-.01,1.662,1.662,0,0,1,.207.01.443.443,0,0,1,.125.031.1.1,0,0,1,.055.052.165.165,0,0,1,.005.073Z" transform="translate(-459.471 -189.887)" fill="#874a9d"/><path d="M581.041,197.676a.159.159,0,0,1-.037.07.206.206,0,0,1-.079.05.545.545,0,0,1-.138.031,1.789,1.789,0,0,1-.212.011,1.708,1.708,0,0,1-.212-.011.424.424,0,0,1-.125-.031.111.111,0,0,1-.058-.05.105.105,0,0,1,0-.07l.936-4.707a.131.131,0,0,1,.031-.068.192.192,0,0,1,.078-.052.578.578,0,0,1,.138-.031,1.913,1.913,0,0,1,.217-.011,1.707,1.707,0,0,1,.206.011.443.443,0,0,1,.126.031.106.106,0,0,1,.057.052.131.131,0,0,1,.008.068Zm1.355-6.292a1.051,1.051,0,0,1-.07.246.432.432,0,0,1-.118.159.447.447,0,0,1-.183.086,1.163,1.163,0,0,1-.267.026,1,1,0,0,1-.251-.026.263.263,0,0,1-.146-.086.273.273,0,0,1-.052-.159,1.1,1.1,0,0,1,.021-.246,1.081,1.081,0,0,1,.078-.243.536.536,0,0,1,.118-.162.375.375,0,0,1,.18-.089,1.314,1.314,0,0,1,.267-.024,1.091,1.091,0,0,1,.248.024.252.252,0,0,1,.147.089.284.284,0,0,1,.055.162.942.942,0,0,1-.026.243" transform="translate(-463.994 -190.521)" fill="#874a9d"/><path d="M591.007,201.484a2.328,2.328,0,0,1-.269.732,1.7,1.7,0,0,1-.473.521,2.067,2.067,0,0,1-.682.311,3.514,3.514,0,0,1-.9.1,3.369,3.369,0,0,1-.792-.086,2.269,2.269,0,0,1-.573-.207.335.335,0,0,1-.107-.1.251.251,0,0,1-.029-.128c0-.021,0-.051,0-.089a.589.589,0,0,1,.016-.115c.009-.038.019-.079.031-.12a.5.5,0,0,1,.047-.112.231.231,0,0,1,.07-.078.153.153,0,0,1,.089-.029.333.333,0,0,1,.157.055,2.51,2.51,0,0,0,.251.123,2.545,2.545,0,0,0,.39.126,2.431,2.431,0,0,0,.573.057,2.083,2.083,0,0,0,.51-.057,1.256,1.256,0,0,0,.4-.173.933.933,0,0,0,.277-.293,1.374,1.374,0,0,0,.159-.424q.089-.476.178-.79t.147-.487a1.4,1.4,0,0,1-.267.39,2.54,2.54,0,0,1-.424.361,2.278,2.278,0,0,1-.528.267,1.743,1.743,0,0,1-.586.1,1.521,1.521,0,0,1-.664-.131,1.128,1.128,0,0,1-.437-.358,1.487,1.487,0,0,1-.238-.539,2.927,2.927,0,0,1-.073-.672,4.61,4.61,0,0,1,.057-.683,4.782,4.782,0,0,1,.183-.763,4.53,4.53,0,0,1,.322-.748,2.9,2.9,0,0,1,.473-.649,2.2,2.2,0,0,1,.641-.458,1.9,1.9,0,0,1,.824-.173,1.592,1.592,0,0,1,.8.188,2.052,2.052,0,0,1,.593.518l.1-.476a.173.173,0,0,1,.12-.12.961.961,0,0,1,.309-.037,1.631,1.631,0,0,1,.175.008.348.348,0,0,1,.113.029.1.1,0,0,1,.052.052.146.146,0,0,1,.005.068Zm-.084-3.849a1.874,1.874,0,0,0-.531-.541,1.171,1.171,0,0,0-.641-.181.991.991,0,0,0-.507.131,1.453,1.453,0,0,0-.4.348,2.379,2.379,0,0,0-.306.5,3.685,3.685,0,0,0-.212.578,4.487,4.487,0,0,0-.121.586,3.97,3.97,0,0,0-.039.526,2.038,2.038,0,0,0,.039.413.936.936,0,0,0,.126.321.64.64,0,0,0,.225.212.677.677,0,0,0,.338.078,1.193,1.193,0,0,0,.578-.159,2.046,2.046,0,0,0,.541-.442,3.077,3.077,0,0,0,.445-.667,3.393,3.393,0,0,0,.288-.839Z" transform="translate(-468.537 -193.958)" fill="#874a9d"/><path d="M607.424,197.367a1.266,1.266,0,0,1-.167.649,1.375,1.375,0,0,1-.523.492,3.016,3.016,0,0,1-.91.314,6.965,6.965,0,0,1-1.328.11h-.554a2.56,2.56,0,0,0-.05.335q-.013.162-.013.3a1.129,1.129,0,0,0,.259.8,1.1,1.1,0,0,0,.839.277,3.311,3.311,0,0,0,.6-.049q.267-.05.463-.107t.321-.107a.6.6,0,0,1,.172-.05.081.081,0,0,1,.071.034.171.171,0,0,1,.023.1.887.887,0,0,1-.01.125,1.241,1.241,0,0,1-.031.149.8.8,0,0,1-.055.144.518.518,0,0,1-.076.115.641.641,0,0,1-.222.123,2.9,2.9,0,0,1-.379.11,4.743,4.743,0,0,1-.481.081,4.431,4.431,0,0,1-.523.031,2.864,2.864,0,0,1-.816-.1,1.438,1.438,0,0,1-.583-.321,1.34,1.34,0,0,1-.348-.541,2.291,2.291,0,0,1-.115-.764,4.419,4.419,0,0,1,.065-.73,4.214,4.214,0,0,1,.207-.771,3.8,3.8,0,0,1,.366-.732,2.8,2.8,0,0,1,.536-.617,2.532,2.532,0,0,1,.719-.429,2.477,2.477,0,0,1,.921-.162,2.227,2.227,0,0,1,.745.11,1.541,1.541,0,0,1,.5.283,1.06,1.06,0,0,1,.285.384,1.089,1.089,0,0,1,.089.421m-.884.078a.524.524,0,0,0-.209-.432.946.946,0,0,0-.6-.165,1.452,1.452,0,0,0-.6.118,1.565,1.565,0,0,0-.462.316,1.972,1.972,0,0,0-.345.463,2.956,2.956,0,0,0-.233.557h.533a5.215,5.215,0,0,0,.918-.068,2.107,2.107,0,0,0,.591-.186.762.762,0,0,0,.314-.275.647.647,0,0,0,.092-.33" transform="translate(-478.777 -193.957)" fill="#874a9d"/><path d="M621.926,197.445a3.16,3.16,0,0,1-.021.361q-.021.177-.058.366l-.591,2.94a.176.176,0,0,1-.034.07.18.18,0,0,1-.079.05.585.585,0,0,1-.138.031,1.77,1.77,0,0,1-.215.011,1.644,1.644,0,0,1-.206-.011.421.421,0,0,1-.126-.031.108.108,0,0,1-.057-.05.128.128,0,0,1-.008-.07l.58-2.908a2.347,2.347,0,0,0,.05-.314c.008-.1.013-.19.013-.267a.884.884,0,0,0-.136-.515.513.513,0,0,0-.455-.2,1.174,1.174,0,0,0-.567.159,2.028,2.028,0,0,0-.539.439,3.124,3.124,0,0,0-.445.664,3.185,3.185,0,0,0-.285.834l-.418,2.1a.157.157,0,0,1-.037.07.2.2,0,0,1-.078.05.546.546,0,0,1-.138.031,1.784,1.784,0,0,1-.212.011,1.693,1.693,0,0,1-.212-.011.421.421,0,0,1-.126-.031.108.108,0,0,1-.057-.05.1.1,0,0,1,0-.07l.947-4.712a.142.142,0,0,1,.029-.068.169.169,0,0,1,.073-.052.443.443,0,0,1,.126-.028,1.756,1.756,0,0,1,.18-.008,1.671,1.671,0,0,1,.181.008.311.311,0,0,1,.11.028.1.1,0,0,1,.05.052.139.139,0,0,1,0,.068l-.178.9a1.479,1.479,0,0,1,.256-.377,2.3,2.3,0,0,1,.424-.366,2.5,2.5,0,0,1,.541-.277,1.757,1.757,0,0,1,.614-.11,1.413,1.413,0,0,1,.586.107,1.027,1.027,0,0,1,.591.688,1.812,1.812,0,0,1,.063.481" transform="translate(-488.065 -193.957)" fill="#874a9d"/><path d="M637.212,196.827a1.1,1.1,0,0,1-.018.194.952.952,0,0,1-.055.186.546.546,0,0,1-.086.144.147.147,0,0,1-.113.057.227.227,0,0,1-.152-.076,2.009,2.009,0,0,0-.206-.17,1.454,1.454,0,0,0-.324-.173,1.353,1.353,0,0,0-.5-.079,1.234,1.234,0,0,0-.593.139,1.537,1.537,0,0,0-.45.361,2.027,2.027,0,0,0-.316.5,4.033,4.033,0,0,0-.316,1.127,3.76,3.76,0,0,0-.035.468,1.231,1.231,0,0,0,.236.816.867.867,0,0,0,.7.277,1.8,1.8,0,0,0,.583-.083,1.988,1.988,0,0,0,.413-.191q.17-.107.28-.191a.338.338,0,0,1,.194-.084.072.072,0,0,1,.065.039.216.216,0,0,1,.024.113,1.15,1.15,0,0,1-.01.149,1.411,1.411,0,0,1-.034.178,1.079,1.079,0,0,1-.058.17.5.5,0,0,1-.1.144,1.127,1.127,0,0,1-.22.16,2.118,2.118,0,0,1-.363.17,3.112,3.112,0,0,1-.448.126,2.451,2.451,0,0,1-.5.05,1.679,1.679,0,0,1-1.258-.429,1.765,1.765,0,0,1-.416-1.276,4.907,4.907,0,0,1,.055-.7,4.24,4.24,0,0,1,.185-.763,4.418,4.418,0,0,1,.334-.745,2.7,2.7,0,0,1,.5-.64,2.332,2.332,0,0,1,.69-.447,2.267,2.267,0,0,1,.9-.168,2.3,2.3,0,0,1,.4.034,2.454,2.454,0,0,1,.363.091,1.511,1.511,0,0,1,.309.144,1.6,1.6,0,0,1,.214.154.361.361,0,0,1,.094.115.294.294,0,0,1,.018.1" transform="translate(-498.314 -193.967)" fill="#874a9d"/><path d="M650.055,197.367a1.267,1.267,0,0,1-.167.649,1.378,1.378,0,0,1-.523.492,3.019,3.019,0,0,1-.91.314,6.967,6.967,0,0,1-1.328.11h-.554a2.519,2.519,0,0,0-.05.335c-.009.108-.013.209-.013.3a1.129,1.129,0,0,0,.259.8,1.1,1.1,0,0,0,.839.277,3.305,3.305,0,0,0,.6-.049q.267-.05.463-.107t.321-.107a.6.6,0,0,1,.173-.05.081.081,0,0,1,.071.034.171.171,0,0,1,.024.1.891.891,0,0,1-.011.125,1.217,1.217,0,0,1-.031.149.817.817,0,0,1-.055.144.517.517,0,0,1-.076.115.64.64,0,0,1-.222.123,2.892,2.892,0,0,1-.379.11,4.762,4.762,0,0,1-.481.081,4.432,4.432,0,0,1-.523.031,2.864,2.864,0,0,1-.816-.1,1.437,1.437,0,0,1-.583-.321,1.336,1.336,0,0,1-.348-.541,2.288,2.288,0,0,1-.115-.764,4.419,4.419,0,0,1,.065-.73,4.219,4.219,0,0,1,.207-.771,3.775,3.775,0,0,1,.366-.732,2.793,2.793,0,0,1,.536-.617,2.533,2.533,0,0,1,.719-.429,2.474,2.474,0,0,1,.92-.162,2.226,2.226,0,0,1,.745.11,1.542,1.542,0,0,1,.5.283,1.059,1.059,0,0,1,.285.384,1.084,1.084,0,0,1,.089.421m-.884.078a.524.524,0,0,0-.209-.432.947.947,0,0,0-.6-.165,1.452,1.452,0,0,0-.6.118,1.564,1.564,0,0,0-.463.316,1.984,1.984,0,0,0-.345.463,2.975,2.975,0,0,0-.233.557h.533a5.216,5.216,0,0,0,.918-.068,2.106,2.106,0,0,0,.591-.186.76.76,0,0,0,.314-.275.644.644,0,0,0,.092-.33" transform="translate(-506.398 -193.957)" fill="#874a9d"/></g></g><path d="M217.98,75.5q0-8.217,3.451-12.4a11.175,11.175,0,0,1,17.435,0q3.5,4.183,3.5,12.071,0,8.546-3.436,12.728a11.193,11.193,0,0,1-17.464-.015q-3.481-4.2-3.481-12.385m4.512-.015q0,6.163,2.241,9.169a6.71,6.71,0,0,0,5.557,3.007,6.49,6.49,0,0,0,5.333-3.037q2.226-3.036,2.226-9.139,0-6.132-2.241-9.139a6.711,6.711,0,0,0-5.557-3.006,6.483,6.483,0,0,0-5.348,3.021q-2.212,3.022-2.211,9.124" transform="translate(-141.232 -38.176)" fill="#874a9d"/><path d="M305.916,70.477h-4.093v-43.8h4.422V42.3a9.99,9.99,0,0,1,3.182-3.212,7.58,7.58,0,0,1,3.959-1.061,9.181,9.181,0,0,1,5.543,1.823,12.335,12.335,0,0,1,3.989,5.527,24.077,24.077,0,0,1,1.494,8.994q0,8.067-3.382,12.444t-7.9,4.377a7.314,7.314,0,0,1-4.085-1.18,9.853,9.853,0,0,1-3.128-3.511Zm-.066-16.1a22.748,22.748,0,0,0,.9,7.38,8.137,8.137,0,0,0,2.546,3.735,5.8,5.8,0,0,0,3.654,1.285q2.726,0,4.838-3.063t2.112-9.158q0-6.245-2.037-9.173a5.966,5.966,0,0,0-5-2.928q-2.726,0-4.868,3.062t-2.141,8.859" transform="translate(-195.556 -17.283)" fill="#874a9d"/><path d="M381.254,28.711h4.392V34.9h-4.392Zm0,12.071h4.392V72.514h-4.392Z" transform="translate(-247.02 -18.602)" fill="#874a9d"/><path d="M427.52,79.748l4.332.687q-.747,5.677-3.75,8.665a9.863,9.863,0,0,1-7.216,2.988,10.25,10.25,0,0,1-8.411-4.2q-3.3-4.2-3.3-12.415,0-8.276,3.331-12.415a10.5,10.5,0,0,1,8.56-4.138,9.741,9.741,0,0,1,6.8,2.51q2.763,2.51,3.541,7.529l-4.272.777a9.292,9.292,0,0,0-2.181-4.8,5.035,5.035,0,0,0-3.735-1.591,6.467,6.467,0,0,0-5.393,2.883q-2.137,2.884-2.136,9.158,0,6.484,2.047,9.382a6.183,6.183,0,0,0,5.244,2.9,5.626,5.626,0,0,0,4.288-1.927,10.511,10.511,0,0,0,2.256-5.991" transform="translate(-265.111 -38.177)" fill="#874a9d"/><path d="M501,92.69V88.029a11.368,11.368,0,0,1-3.585,4.034,8.345,8.345,0,0,1-4.661,1.345,8.434,8.434,0,0,1-5.259-1.658,7.921,7.921,0,0,1-2.913-4.2,26.016,26.016,0,0,1-.732-6.932V60.959h4.392v17.6a27.817,27.817,0,0,0,.493,6.558,5.026,5.026,0,0,0,1.823,2.659,4.907,4.907,0,0,0,3.032,1,6.318,6.318,0,0,0,5.2-2.6q1.733-2.241,1.733-8.217v-17h4.422V92.69Z" transform="translate(-313.495 -39.496)" fill="#874a9d"/><rect width="4.392" height="43.802" transform="translate(198.235 10.109)" fill="#874a9d"/><path d="M610.082,81.153l4.542.687a13.786,13.786,0,0,1-4.108,7.664,10.826,10.826,0,0,1-7.365,2.585,10.99,10.99,0,0,1-8.948-4.2q-3.422-4.2-3.421-12.116,0-8.217,3.451-12.534a10.725,10.725,0,0,1,8.74-4.317,10.362,10.362,0,0,1,8.426,4.243q3.376,4.243,3.376,12.28l-.03,1.434H595.321q.269,5.349,2.48,8.067a6.7,6.7,0,0,0,5.378,2.719q4.96,0,6.9-6.514M595.59,72.458h14.521a12.093,12.093,0,0,0-1.763-6.155,6.414,6.414,0,0,0-10.458-.493,10.812,10.812,0,0,0-2.3,6.648" transform="translate(-382.775 -38.177)" fill="#874a9d"/><path d="M37.31,74.657A37.328,37.328,0,1,1,74.657,37.481,37.322,37.322,0,0,1,37.31,74.657m34.3-37.329A34.285,34.285,0,1,0,37.329,71.612,34.309,34.309,0,0,0,71.613,37.328" transform="translate(0 0)" fill="#874a9d"/><path d="M75.831,34.434c-3.807.252-6.1,2.57-7.915,5.645-.067-.177-.122-.31-.168-.446a7.354,7.354,0,0,0-7.98-5.162,8.927,8.927,0,0,0-7.159,4.655c-.081.13-.159.26-.239.39,0,.006-.021,0-.073.014V35.21H48.251V67.767h4.492c0-.168,0-.328,0-.488.007-5.985,0-11.971.033-17.956a17.749,17.749,0,0,1,.917-5.935,5.841,5.841,0,0,1,4.354-4.039,5.43,5.43,0,0,1,2.5-.017,3.976,3.976,0,0,1,2.834,2.5,10.152,10.152,0,0,1,.686,3.887c.02,6.291.015,12.582.019,18.874,0,1.044,0,2.087,0,3.166H68.6v-.484q0-9.342.011-18.683a14.18,14.18,0,0,1,.822-5.213A6.069,6.069,0,0,1,73.8,39.37a4.8,4.8,0,0,1,6,3.513A29.831,29.831,0,1,1,41.549,22.86,28.754,28.754,0,0,1,53.815,21.42a29.494,29.494,0,0,1,21.8,12.663c.071.1.13.206.221.352" transform="translate(-13.794 -13.784)" fill="#874a9d"/><path d="M643.934,38.446V34.262h1.855a2.458,2.458,0,0,1,.85.113.933.933,0,0,1,.466.4,1.194,1.194,0,0,1,.174.631,1.046,1.046,0,0,1-.289.75,1.455,1.455,0,0,1-.89.389,1.411,1.411,0,0,1,.335.208,2.925,2.925,0,0,1,.459.557l.727,1.139h-.7l-.553-.871c-.162-.251-.295-.443-.4-.576a1.226,1.226,0,0,0-.281-.279.812.812,0,0,0-.252-.112,1.648,1.648,0,0,0-.309-.019h-.641v1.857Zm.554-2.337h1.19a1.761,1.761,0,0,0,.593-.079.633.633,0,0,0,.325-.251.678.678,0,0,0,.111-.375.623.623,0,0,0-.215-.488,1.009,1.009,0,0,0-.681-.19h-1.323Z" transform="translate(-417.214 -22.199)" fill="#874a9d"/><path d="M642.35,37.09a3.706,3.706,0,1,1,3.706-3.706,3.71,3.71,0,0,1-3.706,3.706m0-7.173a3.467,3.467,0,1,0,3.468,3.467,3.471,3.471,0,0,0-3.468-3.467" transform="translate(-413.788 -19.229)" fill="#874a9d"/></g></g></g></svg>